<svg xmlns="http://www.w3.org/2000/svg" viewBox="0 0 512 512">
  <rect width="512" height="512" rx="96" fill="#ffffff"/>
  <rect x="28" y="28" width="456" height="456" rx="80" fill="#e5f1fb"/>
  <path d="M140 376V182c0-58 47-105 105-105 70 0 126 56 126 126 0 85-69 154-154 154-48 0-87-39-87-87 0-59 48-107 107-107 35 0 64 29 64 64 0 43-35 78-78 78-24 0-44-20-44-44 0-30 24-54 54-54 16 0 29 13 29 29 0 20-16 36-36 36" fill="none" stroke="#004889" stroke-width="30" stroke-linecap="round"/>
  <text x="256" y="442" text-anchor="middle" font-family="Arial, Helvetica, sans-serif" font-size="82" font-weight="700" fill="#004889">FP</text>
</svg>
